<?xml version="1.0" standalone="no"?>
<!DOCTYPE svg PUBLIC "-//W3C//DTD SVG 20010904//EN"
 "http://www.w3.org/TR/2001/REC-SVG-20010904/DTD/svg10.dtd">
<svg version="1.0" xmlns="http://www.w3.org/2000/svg"
 width="374.000000pt" height="374.000000pt" viewBox="0 0 374.000000 374.000000"
 preserveAspectRatio="xMidYMid meet">
<metadata>
Created by potrace 1.14, written by Peter Selinger 2001-2017
</metadata>
<g transform="translate(0.000000,374.000000) scale(0.100000,-0.100000)"
fill="#000000" stroke="none">
<path d="M1495 3699 c-27 -11 -86 -36 -130 -56 -44 -19 -93 -41 -110 -48 -16
-7 -50 -22 -75 -33 -25 -11 -90 -39 -145 -62 -55 -23 -122 -52 -150 -65 -27
-12 -111 -48 -185 -80 -74 -32 -157 -68 -185 -80 -27 -13 -79 -35 -115 -50
-36 -15 -83 -35 -105 -45 -22 -10 -74 -32 -115 -49 -41 -18 -87 -44 -102 -58
-62 -59 -58 44 -58 -1505 0 -1366 1 -1414 19 -1455 43 -93 151 -123 261 -71
30 14 78 36 105 48 28 13 127 57 220 100 94 42 190 85 214 96 24 10 74 33 110
50 l66 31 5 -116 c6 -134 19 -167 81 -208 58 -38 123 -36 214 6 39 18 209 96
380 173 170 77 313 141 317 144 4 3 7 -40 7 -95 0 -147 15 -187 87 -232 68
-42 115 -33 319 60 99 45 198 91 220 101 22 9 132 59 245 110 113 51 243 110
288 131 46 22 85 39 87 39 2 0 47 20 100 45 54 25 125 57 159 71 112 48 171
82 194 113 l22 30 0 1436 c0 1006 -3 1442 -11 1456 -26 49 -94 89 -151 89 -18
0 -69 -15 -113 -34 -88 -37 -500 -215 -573 -248 -149 -66 -135 -71 -138 47 -2
113 -9 139 -53 183 -38 37 -91 56 -140 49 -31 -4 -135 -45 -301 -119 -54 -24
-53 -24 -304 -132 -109 -47 -199 -86 -200 -86 0 0 -1 49 -2 109 0 101 -2 113
-27 149 -30 46 -96 82 -148 81 -19 0 -56 -9 -84 -20z"/>
</g>
</svg>
